<svg width="90" height="31" viewBox="0 0 90 31" fill="none" xmlns="http://www.w3.org/2000/svg">
<ellipse cx="3.24957" cy="26.9031" rx="3.6189" ry="3.24957" transform="rotate(-90 3.24957 26.9031)" fill="#D9D9D9"/>
<ellipse cx="3.24957" cy="15.5295" rx="3.6189" ry="3.24957" transform="rotate(-90 3.24957 15.5295)" fill="#D9D9D9"/>
<ellipse cx="3.24957" cy="4.15576" rx="3.6189" ry="3.24957" transform="rotate(-90 3.24957 4.15576)" fill="#D9D9D9"/>
<ellipse cx="13.4625" cy="26.9031" rx="3.6189" ry="3.24957" transform="rotate(-90 13.4625 26.9031)" fill="#D9D9D9"/>
<ellipse cx="13.4625" cy="15.5295" rx="3.6189" ry="3.24957" transform="rotate(-90 13.4625 15.5295)" fill="#D9D9D9"/>
<ellipse cx="13.4625" cy="4.15576" rx="3.6189" ry="3.24957" transform="rotate(-90 13.4625 4.15576)" fill="#D9D9D9"/>
<ellipse cx="23.6753" cy="26.9031" rx="3.6189" ry="3.24957" transform="rotate(-90 23.6753 26.9031)" fill="#D9D9D9"/>
<ellipse cx="23.6753" cy="15.5295" rx="3.6189" ry="3.24957" transform="rotate(-90 23.6753 15.5295)" fill="#D9D9D9"/>
<ellipse cx="23.6753" cy="4.15576" rx="3.6189" ry="3.24957" transform="rotate(-90 23.6753 4.15576)" fill="#D9D9D9"/>
<ellipse cx="33.8887" cy="26.9031" rx="3.6189" ry="3.24957" transform="rotate(-90 33.8887 26.9031)" fill="#D9D9D9"/>
<ellipse cx="33.8887" cy="15.5295" rx="3.6189" ry="3.24957" transform="rotate(-90 33.8887 15.5295)" fill="#D9D9D9"/>
<ellipse cx="33.8887" cy="4.15576" rx="3.6189" ry="3.24957" transform="rotate(-90 33.8887 4.15576)" fill="#D9D9D9"/>
<ellipse cx="44.4107" cy="26.9031" rx="3.6189" ry="3.24957" transform="rotate(-90 44.4107 26.9031)" fill="#D9D9D9"/>
<ellipse cx="44.4107" cy="15.5295" rx="3.6189" ry="3.24957" transform="rotate(-90 44.4107 15.5295)" fill="#D9D9D9"/>
<ellipse cx="44.4107" cy="4.15576" rx="3.6189" ry="3.24957" transform="rotate(-90 44.4107 4.15576)" fill="#D9D9D9"/>
<ellipse cx="55.1041" cy="26.908" rx="3.6189" ry="3.24957" transform="rotate(-90 55.1041 26.908)" fill="#D9D9D9"/>
<ellipse cx="55.1041" cy="15.5342" rx="3.6189" ry="3.24957" transform="rotate(-90 55.1041 15.5342)" fill="#D9D9D9"/>
<ellipse cx="55.1041" cy="4.1604" rx="3.6189" ry="3.24957" transform="rotate(-90 55.1041 4.1604)" fill="#D9D9D9"/>
<ellipse cx="65.7798" cy="26.9111" rx="3.6189" ry="3.24957" transform="rotate(-90 65.7798 26.9111)" fill="#D9D9D9"/>
<ellipse cx="65.7798" cy="15.5376" rx="3.6189" ry="3.24957" transform="rotate(-90 65.7798 15.5376)" fill="#D9D9D9"/>
<ellipse cx="65.7798" cy="4.16382" rx="3.6189" ry="3.24957" transform="rotate(-90 65.7798 4.16382)" fill="#D9D9D9"/>
<ellipse cx="76.4556" cy="26.9138" rx="3.6189" ry="3.24957" transform="rotate(-90 76.4556 26.9138)" fill="#D9D9D9"/>
<ellipse cx="76.4556" cy="15.5403" rx="3.6189" ry="3.24957" transform="rotate(-90 76.4556 15.5403)" fill="#D9D9D9"/>
<ellipse cx="76.4556" cy="4.16651" rx="3.6189" ry="3.24957" transform="rotate(-90 76.4556 4.16651)" fill="#D9D9D9"/>
<ellipse cx="86.7505" cy="26.918" rx="3.6189" ry="3.24957" transform="rotate(-90 86.7505 26.918)" fill="#D9D9D9"/>
<ellipse cx="86.7505" cy="15.5442" rx="3.6189" ry="3.24957" transform="rotate(-90 86.7505 15.5442)" fill="#D9D9D9"/>
<ellipse cx="86.7505" cy="4.17041" rx="3.6189" ry="3.24957" transform="rotate(-90 86.7505 4.17041)" fill="#D9D9D9"/>
</svg>
