<svg width="30" height="75" viewBox="0 0 30 75" fill="none" xmlns="http://www.w3.org/2000/svg">
<g id="rectangle circle design">
<circle id="Ellipse 41" cx="3.54545" cy="3.54545" r="3.54545" fill="#CECBCB"/>
<circle id="Ellipse 42" cx="14.6885" cy="3.54545" r="3.54545" fill="#CECBCB"/>
<circle id="Ellipse 43" cx="25.8311" cy="3.54545" r="3.54545" fill="#CECBCB"/>
<circle id="Ellipse 44" cx="3.54545" cy="14.6883" r="3.54545" fill="#CECBCB"/>
<circle id="Ellipse 45" cx="14.6885" cy="14.6883" r="3.54545" fill="#CECBCB"/>
<circle id="Ellipse 46" cx="25.8311" cy="14.6883" r="3.54545" fill="#CECBCB"/>
<circle id="Ellipse 47" cx="3.54545" cy="25.8311" r="3.54545" fill="#CECBCB"/>
<circle id="Ellipse 48" cx="14.6885" cy="25.8311" r="3.54545" fill="#CECBCB"/>
<circle id="Ellipse 49" cx="25.8311" cy="25.8311" r="3.54545" fill="#CECBCB"/>
<circle id="Ellipse 50" cx="3.54545" cy="36.9739" r="3.54545" fill="#CECBCB"/>
<circle id="Ellipse 51" cx="14.6885" cy="36.9739" r="3.54545" fill="#CECBCB"/>
<circle id="Ellipse 52" cx="25.8311" cy="36.9739" r="3.54545" fill="#CECBCB"/>
<circle id="Ellipse 53" cx="3.54545" cy="48.4546" r="3.54545" fill="#CECBCB"/>
<circle id="Ellipse 54" cx="14.6885" cy="48.4546" r="3.54545" fill="#CECBCB"/>
<circle id="Ellipse 55" cx="25.8311" cy="48.4546" r="3.54545" fill="#CECBCB"/>
<circle id="Ellipse 56" cx="3.54545" cy="59.5455" r="3.54545" fill="#CECBCB"/>
<circle id="Ellipse 57" cx="14.688" cy="59.5455" r="3.54545" fill="#CECBCB"/>
<circle id="Ellipse 58" cx="25.8311" cy="59.5455" r="3.54545" fill="#CECBCB"/>
<circle id="Ellipse 59" cx="3.54545" cy="70.5455" r="3.54545" fill="#CECBCB"/>
<circle id="Ellipse 60" cx="14.688" cy="70.5455" r="3.54545" fill="#CECBCB"/>
<circle id="Ellipse 61" cx="25.8311" cy="70.5455" r="3.54545" fill="#CECBCB"/>
</g>
</svg>
