<svg width="126" height="71" viewBox="0 0 126 71" fill="none" xmlns="http://www.w3.org/2000/svg">
<circle cx="8.55104" cy="62.1477" r="8.52273" transform="rotate(-90.0263 8.55104 62.1477)" fill="#D9D9D9"/>
<circle cx="8.53883" cy="35.362" r="8.52273" transform="rotate(-90.0263 8.53883 35.362)" fill="#D9D9D9"/>
<circle cx="8.52663" cy="8.57614" r="8.52273" transform="rotate(-90.0263 8.52663 8.57614)" fill="#D9D9D9"/>
<circle cx="35.3367" cy="62.1355" r="8.52273" transform="rotate(-90.0263 35.3367 62.1355)" fill="#D9D9D9"/>
<circle cx="35.3245" cy="35.3496" r="8.52273" transform="rotate(-90.0263 35.3245 35.3496)" fill="#D9D9D9"/>
<circle cx="35.3123" cy="8.56394" r="8.52273" transform="rotate(-90.0263 35.3123 8.56394)" fill="#D9D9D9"/>
<circle cx="62.1223" cy="62.123" r="8.52273" transform="rotate(-90.0263 62.1223 62.123)" fill="#D9D9D9"/>
<circle cx="62.1101" cy="35.3374" r="8.52273" transform="rotate(-90.0263 62.1101 35.3374)" fill="#D9D9D9"/>
<circle cx="62.0979" cy="8.55173" r="8.52273" transform="rotate(-90.0263 62.0979 8.55173)" fill="#D9D9D9"/>
<circle cx="88.908" cy="62.1108" r="8.52273" transform="rotate(-90.0263 88.908 62.1108)" fill="#D9D9D9"/>
<circle cx="88.8958" cy="35.3252" r="8.52273" transform="rotate(-90.0263 88.8958 35.3252)" fill="#D9D9D9"/>
<circle cx="88.8836" cy="8.53928" r="8.52273" transform="rotate(-90.0263 88.8836 8.53928)" fill="#D9D9D9"/>
<circle cx="116.506" cy="62.0981" r="8.52273" transform="rotate(-90.0263 116.506 62.0981)" fill="#D9D9D9"/>
<circle cx="116.493" cy="35.3125" r="8.52273" transform="rotate(-90.0263 116.493 35.3125)" fill="#D9D9D9"/>
<circle cx="116.481" cy="8.52658" r="8.52273" transform="rotate(-90.0263 116.481 8.52658)" fill="#D9D9D9"/>
</svg>
