<svg width="596" height="247" viewBox="0 0 596 247" fill="none" xmlns="http://www.w3.org/2000/svg">
<path d="M3.3 142.8C3.3 135.867 4.8 129.7 7.8 124.3C10.8 118.833 14.9667 114.6 20.3 111.6C25.7 108.533 31.8 107 38.6 107C46.9333 107 54.0667 109.2 60 113.6C65.9333 118 69.9 124 71.9 131.6H53.1C51.7 128.667 49.7 126.433 47.1 124.9C44.5667 123.367 41.6667 122.6 38.4 122.6C33.1333 122.6 28.8667 124.433 25.6 128.1C22.3333 131.767 20.7 136.667 20.7 142.8C20.7 148.933 22.3333 153.833 25.6 157.5C28.8667 161.167 33.1333 163 38.4 163C41.6667 163 44.5667 162.233 47.1 160.7C49.7 159.167 51.7 156.933 53.1 154H71.9C69.9 161.6 65.9333 167.6 60 172C54.0667 176.333 46.9333 178.5 38.6 178.5C31.8 178.5 25.7 177 20.3 174C14.9667 170.933 10.8 166.7 7.8 161.3C4.8 155.9 3.3 149.733 3.3 142.8ZM99.8258 107.8V149.8C99.8258 154 100.859 157.233 102.926 159.5C104.993 161.767 108.026 162.9 112.026 162.9C116.026 162.9 119.093 161.767 121.226 159.5C123.359 157.233 124.426 154 124.426 149.8V107.8H141.526V149.7C141.526 155.967 140.193 161.267 137.526 165.6C134.859 169.933 131.259 173.2 126.726 175.4C122.259 177.6 117.259 178.7 111.726 178.7C106.193 178.7 101.226 177.633 96.8258 175.5C92.4925 173.3 89.0592 170.033 86.5258 165.7C83.9925 161.3 82.7258 155.967 82.7258 149.7V107.8H99.8258ZM179.588 178.7C174.454 178.7 169.854 177.867 165.788 176.2C161.721 174.533 158.454 172.067 155.988 168.8C153.588 165.533 152.321 161.6 152.188 157H170.388C170.654 159.6 171.554 161.6 173.088 163C174.621 164.333 176.621 165 179.088 165C181.621 165 183.621 164.433 185.088 163.3C186.554 162.1 187.288 160.467 187.288 158.4C187.288 156.667 186.688 155.233 185.488 154.1C184.354 152.967 182.921 152.033 181.188 151.3C179.521 150.567 177.121 149.733 173.988 148.8C169.454 147.4 165.754 146 162.888 144.6C160.021 143.2 157.554 141.133 155.488 138.4C153.421 135.667 152.388 132.1 152.388 127.7C152.388 121.167 154.754 116.067 159.488 112.4C164.221 108.667 170.388 106.8 177.988 106.8C185.721 106.8 191.954 108.667 196.688 112.4C201.421 116.067 203.954 121.2 204.288 127.8H185.788C185.654 125.533 184.821 123.767 183.288 122.5C181.754 121.167 179.788 120.5 177.388 120.5C175.321 120.5 173.654 121.067 172.388 122.2C171.121 123.267 170.488 124.833 170.488 126.9C170.488 129.167 171.554 130.933 173.688 132.2C175.821 133.467 179.154 134.833 183.688 136.3C188.221 137.833 191.888 139.3 194.688 140.7C197.554 142.1 200.021 144.133 202.088 146.8C204.154 149.467 205.188 152.9 205.188 157.1C205.188 161.1 204.154 164.733 202.088 168C200.088 171.267 197.154 173.867 193.288 175.8C189.421 177.733 184.854 178.7 179.588 178.7ZM233.465 121.5V135.7H256.365V148.9H233.465V164.3H259.365V178H216.365V107.8H259.365V121.5H233.465ZM268.221 142.8C268.221 135.867 269.721 129.7 272.721 124.3C275.721 118.833 279.887 114.6 285.221 111.6C290.621 108.533 296.721 107 303.521 107C311.854 107 318.987 109.2 324.921 113.6C330.854 118 334.821 124 336.821 131.6H318.021C316.621 128.667 314.621 126.433 312.021 124.9C309.487 123.367 306.587 122.6 303.321 122.6C298.054 122.6 293.787 124.433 290.521 128.1C287.254 131.767 285.621 136.667 285.621 142.8C285.621 148.933 287.254 153.833 290.521 157.5C293.787 161.167 298.054 163 303.321 163C306.587 163 309.487 162.233 312.021 160.7C314.621 159.167 316.621 156.933 318.021 154H336.821C334.821 161.6 330.854 167.6 324.921 172C318.987 176.333 311.854 178.5 303.521 178.5C296.721 178.5 290.621 177 285.221 174C279.887 170.933 275.721 166.7 272.721 161.3C269.721 155.9 268.221 149.733 268.221 142.8Z" fill="black"/>
<g filter="url(#filter0_i_496_562)">
<path d="M216.95 76.15C218.083 75.25 218.6 74.8333 218.5 74.9C221.767 72.2 224.333 69.9833 226.2 68.25C228.1 66.5167 229.7 64.7 231 62.8C232.3 60.9 232.95 59.05 232.95 57.25C232.95 55.8833 232.633 54.8167 232 54.05C231.367 53.2833 230.417 52.9 229.15 52.9C227.883 52.9 226.883 53.3833 226.15 54.35C225.45 55.2833 225.1 56.6167 225.1 58.35H216.85C216.917 55.5167 217.517 53.15 218.65 51.25C219.817 49.35 221.333 47.95 223.2 47.05C225.1 46.15 227.2 45.7 229.5 45.7C233.467 45.7 236.45 46.7167 238.45 48.75C240.483 50.7833 241.5 53.4333 241.5 56.7C241.5 60.2667 240.283 63.5833 237.85 66.65C235.417 69.6833 232.317 72.65 228.55 75.55H242.05V82.5H216.95V76.15ZM245.814 64.25C245.814 58.5167 246.914 54 249.114 50.7C251.348 47.4 254.931 45.75 259.864 45.75C264.798 45.75 268.364 47.4 270.564 50.7C272.798 54 273.914 58.5167 273.914 64.25C273.914 70.05 272.798 74.6 270.564 77.9C268.364 81.2 264.798 82.85 259.864 82.85C254.931 82.85 251.348 81.2 249.114 77.9C246.914 74.6 245.814 70.05 245.814 64.25ZM265.514 64.25C265.514 60.8833 265.148 58.3 264.414 56.5C263.681 54.6667 262.164 53.75 259.864 53.75C257.564 53.75 256.048 54.6667 255.314 56.5C254.581 58.3 254.214 60.8833 254.214 64.25C254.214 66.5167 254.348 68.4 254.614 69.9C254.881 71.3667 255.414 72.5667 256.214 73.5C257.048 74.4 258.264 74.85 259.864 74.85C261.464 74.85 262.664 74.4 263.464 73.5C264.298 72.5667 264.848 71.3667 265.114 69.9C265.381 68.4 265.514 66.5167 265.514 64.25ZM278.132 76.15C279.265 75.25 279.782 74.8333 279.682 74.9C282.948 72.2 285.515 69.9833 287.382 68.25C289.282 66.5167 290.882 64.7 292.182 62.8C293.482 60.9 294.132 59.05 294.132 57.25C294.132 55.8833 293.815 54.8167 293.182 54.05C292.548 53.2833 291.598 52.9 290.332 52.9C289.065 52.9 288.065 53.3833 287.332 54.35C286.632 55.2833 286.282 56.6167 286.282 58.35H278.032C278.098 55.5167 278.698 53.15 279.832 51.25C280.998 49.35 282.515 47.95 284.382 47.05C286.282 46.15 288.382 45.7 290.682 45.7C294.648 45.7 297.632 46.7167 299.632 48.75C301.665 50.7833 302.682 53.4333 302.682 56.7C302.682 60.2667 301.465 63.5833 299.032 66.65C296.598 69.6833 293.498 72.65 289.732 75.55H303.232V82.5H278.132V76.15ZM307.196 76.5V69.6L322.996 47H332.546V69.1H336.646V76.5H332.546V83H323.996V76.5H307.196ZM324.596 56.4L316.196 69.1H324.596V56.4Z" fill="url(#paint0_linear_496_562)"/>
</g>
<g filter="url(#filter1_d_496_562)">
<path d="M481.113 239L413.423 217.355L368 159.183V86.5811L409.861 24.3509L481.113 0L550.139 24.3509L592 86.5811V159.183L550.139 217.355L481.113 239Z" fill="black"/>
</g>
<g filter="url(#filter2_i_496_562)">
<path d="M421.141 207.578L480.5 18.1716V225.703L421.141 207.578Z" fill="url(#paint1_linear_496_562)"/>
</g>
<g filter="url(#filter3_i_496_562)">
<path d="M419.781 206.219L379.906 155.465L479.141 18.1716L419.781 206.219Z" fill="url(#paint2_linear_496_562)"/>
</g>
<g filter="url(#filter4_i_496_562)">
<path d="M379 154.562V92.031L477.328 17.7185L379 154.562Z" fill="url(#paint3_linear_496_562)"/>
</g>
<g filter="url(#filter5_i_496_562)">
<path d="M417.342 35.7688L381.719 87.9529L477.781 15.4529L417.342 35.7688Z" fill="url(#paint4_linear_496_562)"/>
</g>
<g filter="url(#filter6_i_496_562)">
<path d="M542.931 35.5919L481.709 223.689L482.313 14.9999L542.931 35.5919Z" fill="url(#paint5_linear_496_562)"/>
</g>
<g filter="url(#filter7_i_496_562)">
<path d="M544.139 36.3975L580.792 90.7724L482.917 223.689L544.139 36.3975Z" fill="url(#paint6_linear_496_562)"/>
</g>
<g filter="url(#filter8_i_496_562)">
<path d="M581.195 92.7862L581.195 155.217L484.931 223.286L581.195 92.7862Z" fill="url(#paint7_linear_496_562)"/>
</g>
<g filter="url(#filter9_i_496_562)">
<path d="M543.334 206.772L577.972 159.245L486.139 224.495L543.334 206.772Z" fill="url(#paint8_linear_496_562)"/>
</g>
<defs>
<filter id="filter0_i_496_562" x="216.85" y="45.7" width="119.796" height="41.3" filterUnits="userSpaceOnUse" color-interpolation-filters="sRGB">
<feFlood flood-opacity="0" result="BackgroundImageFix"/>
<feBlend mode="normal" in="SourceGraphic" in2="BackgroundImageFix" result="shape"/>
<feColorMatrix in="SourceAlpha" type="matrix" values="0 0 0 0 0 0 0 0 0 0 0 0 0 0 0 0 0 0 127 0" result="hardAlpha"/>
<feOffset dy="4"/>
<feGaussianBlur stdDeviation="2"/>
<feComposite in2="hardAlpha" operator="arithmetic" k2="-1" k3="1"/>
<feColorMatrix type="matrix" values="0 0 0 0 0 0 0 0 0 0 0 0 0 0 0 0 0 0 0.25 0"/>
<feBlend mode="normal" in2="shape" result="effect1_innerShadow_496_562"/>
</filter>
<filter id="filter1_d_496_562" x="364" y="0" width="232" height="247" filterUnits="userSpaceOnUse" color-interpolation-filters="sRGB">
<feFlood flood-opacity="0" result="BackgroundImageFix"/>
<feColorMatrix in="SourceAlpha" type="matrix" values="0 0 0 0 0 0 0 0 0 0 0 0 0 0 0 0 0 0 127 0" result="hardAlpha"/>
<feOffset dy="4"/>
<feGaussianBlur stdDeviation="2"/>
<feComposite in2="hardAlpha" operator="out"/>
<feColorMatrix type="matrix" values="0 0 0 0 0 0 0 0 0 0 0 0 0 0 0 0 0 0 0.25 0"/>
<feBlend mode="normal" in2="BackgroundImageFix" result="effect1_dropShadow_496_562"/>
<feBlend mode="normal" in="SourceGraphic" in2="effect1_dropShadow_496_562" result="shape"/>
</filter>
<filter id="filter2_i_496_562" x="421.141" y="18.1716" width="59.3594" height="211.531" filterUnits="userSpaceOnUse" color-interpolation-filters="sRGB">
<feFlood flood-opacity="0" result="BackgroundImageFix"/>
<feBlend mode="normal" in="SourceGraphic" in2="BackgroundImageFix" result="shape"/>
<feColorMatrix in="SourceAlpha" type="matrix" values="0 0 0 0 0 0 0 0 0 0 0 0 0 0 0 0 0 0 127 0" result="hardAlpha"/>
<feOffset dy="4"/>
<feGaussianBlur stdDeviation="2"/>
<feComposite in2="hardAlpha" operator="arithmetic" k2="-1" k3="1"/>
<feColorMatrix type="matrix" values="0 0 0 0 0 0 0 0 0 0 0 0 0 0 0 0 0 0 0.25 0"/>
<feBlend mode="normal" in2="shape" result="effect1_innerShadow_496_562"/>
</filter>
<filter id="filter3_i_496_562" x="379.906" y="18.1716" width="99.2344" height="192.047" filterUnits="userSpaceOnUse" color-interpolation-filters="sRGB">
<feFlood flood-opacity="0" result="BackgroundImageFix"/>
<feBlend mode="normal" in="SourceGraphic" in2="BackgroundImageFix" result="shape"/>
<feColorMatrix in="SourceAlpha" type="matrix" values="0 0 0 0 0 0 0 0 0 0 0 0 0 0 0 0 0 0 127 0" result="hardAlpha"/>
<feOffset dy="4"/>
<feGaussianBlur stdDeviation="2"/>
<feComposite in2="hardAlpha" operator="arithmetic" k2="-1" k3="1"/>
<feColorMatrix type="matrix" values="0 0 0 0 0 0 0 0 0 0 0 0 0 0 0 0 0 0 0.25 0"/>
<feBlend mode="normal" in2="shape" result="effect1_innerShadow_496_562"/>
</filter>
<filter id="filter4_i_496_562" x="379" y="17.7185" width="98.3281" height="140.844" filterUnits="userSpaceOnUse" color-interpolation-filters="sRGB">
<feFlood flood-opacity="0" result="BackgroundImageFix"/>
<feBlend mode="normal" in="SourceGraphic" in2="BackgroundImageFix" result="shape"/>
<feColorMatrix in="SourceAlpha" type="matrix" values="0 0 0 0 0 0 0 0 0 0 0 0 0 0 0 0 0 0 127 0" result="hardAlpha"/>
<feOffset dy="4"/>
<feGaussianBlur stdDeviation="2"/>
<feComposite in2="hardAlpha" operator="arithmetic" k2="-1" k3="1"/>
<feColorMatrix type="matrix" values="0 0 0 0 0 0 0 0 0 0 0 0 0 0 0 0 0 0 0.25 0"/>
<feBlend mode="normal" in2="shape" result="effect1_innerShadow_496_562"/>
</filter>
<filter id="filter5_i_496_562" x="381.719" y="15.4529" width="96.0625" height="76.5" filterUnits="userSpaceOnUse" color-interpolation-filters="sRGB">
<feFlood flood-opacity="0" result="BackgroundImageFix"/>
<feBlend mode="normal" in="SourceGraphic" in2="BackgroundImageFix" result="shape"/>
<feColorMatrix in="SourceAlpha" type="matrix" values="0 0 0 0 0 0 0 0 0 0 0 0 0 0 0 0 0 0 127 0" result="hardAlpha"/>
<feOffset dy="4"/>
<feGaussianBlur stdDeviation="2"/>
<feComposite in2="hardAlpha" operator="arithmetic" k2="-1" k3="1"/>
<feColorMatrix type="matrix" values="0 0 0 0 0 0 0 0 0 0 0 0 0 0 0 0 0 0 0.25 0"/>
<feBlend mode="normal" in2="shape" result="effect1_innerShadow_496_562"/>
</filter>
<filter id="filter6_i_496_562" x="481.708" y="15" width="61.2222" height="212.689" filterUnits="userSpaceOnUse" color-interpolation-filters="sRGB">
<feFlood flood-opacity="0" result="BackgroundImageFix"/>
<feBlend mode="normal" in="SourceGraphic" in2="BackgroundImageFix" result="shape"/>
<feColorMatrix in="SourceAlpha" type="matrix" values="0 0 0 0 0 0 0 0 0 0 0 0 0 0 0 0 0 0 127 0" result="hardAlpha"/>
<feOffset dy="4"/>
<feGaussianBlur stdDeviation="2"/>
<feComposite in2="hardAlpha" operator="arithmetic" k2="-1" k3="1"/>
<feColorMatrix type="matrix" values="0 0 0 0 0 0 0 0 0 0 0 0 0 0 0 0 0 0 0.25 0"/>
<feBlend mode="normal" in2="shape" result="effect1_innerShadow_496_562"/>
</filter>
<filter id="filter7_i_496_562" x="482.917" y="36.3975" width="97.875" height="191.292" filterUnits="userSpaceOnUse" color-interpolation-filters="sRGB">
<feFlood flood-opacity="0" result="BackgroundImageFix"/>
<feBlend mode="normal" in="SourceGraphic" in2="BackgroundImageFix" result="shape"/>
<feColorMatrix in="SourceAlpha" type="matrix" values="0 0 0 0 0 0 0 0 0 0 0 0 0 0 0 0 0 0 127 0" result="hardAlpha"/>
<feOffset dy="4"/>
<feGaussianBlur stdDeviation="2"/>
<feComposite in2="hardAlpha" operator="arithmetic" k2="-1" k3="1"/>
<feColorMatrix type="matrix" values="0 0 0 0 0 0 0 0 0 0 0 0 0 0 0 0 0 0 0.25 0"/>
<feBlend mode="normal" in2="shape" result="effect1_innerShadow_496_562"/>
</filter>
<filter id="filter8_i_496_562" x="484.931" y="92.7861" width="96.2642" height="134.5" filterUnits="userSpaceOnUse" color-interpolation-filters="sRGB">
<feFlood flood-opacity="0" result="BackgroundImageFix"/>
<feBlend mode="normal" in="SourceGraphic" in2="BackgroundImageFix" result="shape"/>
<feColorMatrix in="SourceAlpha" type="matrix" values="0 0 0 0 0 0 0 0 0 0 0 0 0 0 0 0 0 0 127 0" result="hardAlpha"/>
<feOffset dy="4"/>
<feGaussianBlur stdDeviation="2"/>
<feComposite in2="hardAlpha" operator="arithmetic" k2="-1" k3="1"/>
<feColorMatrix type="matrix" values="0 0 0 0 0 0 0 0 0 0 0 0 0 0 0 0 0 0 0.25 0"/>
<feBlend mode="normal" in2="shape" result="effect1_innerShadow_496_562"/>
</filter>
<filter id="filter9_i_496_562" x="486.139" y="159.245" width="91.833" height="69.25" filterUnits="userSpaceOnUse" color-interpolation-filters="sRGB">
<feFlood flood-opacity="0" result="BackgroundImageFix"/>
<feBlend mode="normal" in="SourceGraphic" in2="BackgroundImageFix" result="shape"/>
<feColorMatrix in="SourceAlpha" type="matrix" values="0 0 0 0 0 0 0 0 0 0 0 0 0 0 0 0 0 0 127 0" result="hardAlpha"/>
<feOffset dy="4"/>
<feGaussianBlur stdDeviation="2"/>
<feComposite in2="hardAlpha" operator="arithmetic" k2="-1" k3="1"/>
<feColorMatrix type="matrix" values="0 0 0 0 0 0 0 0 0 0 0 0 0 0 0 0 0 0 0.25 0"/>
<feBlend mode="normal" in2="shape" result="effect1_innerShadow_496_562"/>
</filter>
<linearGradient id="paint0_linear_496_562" x1="228.152" y1="65.5" x2="339" y2="65.5" gradientUnits="userSpaceOnUse">
<stop stop-color="#AC65E3"/>
<stop offset="0.545153" stop-color="#DF86BC"/>
<stop offset="1" stop-color="#FFB963"/>
</linearGradient>
<linearGradient id="paint1_linear_496_562" x1="480.099" y1="20.8869" x2="450.254" y2="215.622" gradientUnits="userSpaceOnUse">
<stop offset="0.21875" stop-color="#FFB963"/>
<stop offset="1" stop-color="#E48BB7"/>
</linearGradient>
<linearGradient id="paint2_linear_496_562" x1="479.594" y1="16.3591" x2="395.981" y2="178.238" gradientUnits="userSpaceOnUse">
<stop offset="0.317708" stop-color="#E38AB6"/>
<stop offset="1" stop-color="#CB79CD"/>
</linearGradient>
<linearGradient id="paint3_linear_496_562" x1="478.282" y1="16.7619" x2="379.252" y2="125.306" gradientUnits="userSpaceOnUse">
<stop offset="0.395833" stop-color="#CA78CC"/>
<stop offset="1" stop-color="#AD65E3"/>
</linearGradient>
<linearGradient id="paint4_linear_496_562" x1="477.781" y1="15.4529" x2="395.545" y2="66.3948" gradientUnits="userSpaceOnUse">
<stop offset="0.427083" stop-color="#AC65E3"/>
<stop offset="1" stop-color="#FFBA64"/>
</linearGradient>
<linearGradient id="paint5_linear_496_562" x1="480.5" y1="223.689" x2="511.917" y2="24.3142" gradientUnits="userSpaceOnUse">
<stop offset="0.3125" stop-color="#AC65E3"/>
<stop offset="1" stop-color="#FFBA64"/>
</linearGradient>
<linearGradient id="paint6_linear_496_562" x1="482.917" y1="224.495" x2="563.069" y2="63.7864" gradientUnits="userSpaceOnUse">
<stop offset="0.34375" stop-color="#CA78CC"/>
<stop offset="1" stop-color="#AD66E4"/>
</linearGradient>
<linearGradient id="paint7_linear_496_562" x1="484.528" y1="223.689" x2="581.195" y2="122.995" gradientUnits="userSpaceOnUse">
<stop offset="0.34375" stop-color="#E38AB6"/>
<stop offset="1" stop-color="#CB79CD"/>
</linearGradient>
<linearGradient id="paint8_linear_496_562" x1="486.139" y1="225.3" x2="562.667" y2="180.995" gradientUnits="userSpaceOnUse">
<stop offset="0.34375" stop-color="#FFB963"/>
<stop offset="1" stop-color="#E48BB7"/>
</linearGradient>
</defs>
</svg>
