<svg width="597" height="247" viewBox="0 0 597 247" fill="none" xmlns="http://www.w3.org/2000/svg">
<g filter="url(#filter0_d_483_5280)">
<path d="M482.113 239L414.423 217.355L369 159.183V86.5811L410.861 24.3509L482.113 0L551.139 24.3509L593 86.5811V159.183L551.139 217.355L482.113 239Z" fill="white"/>
</g>
<g filter="url(#filter1_i_483_5280)">
<path d="M213.95 73.15C215.083 72.25 215.6 71.8333 215.5 71.9C218.767 69.2 221.333 66.9833 223.2 65.25C225.1 63.5167 226.7 61.7 228 59.8C229.3 57.9 229.95 56.05 229.95 54.25C229.95 52.8833 229.633 51.8167 229 51.05C228.367 50.2833 227.417 49.9 226.15 49.9C224.883 49.9 223.883 50.3833 223.15 51.35C222.45 52.2833 222.1 53.6167 222.1 55.35H213.85C213.917 52.5167 214.517 50.15 215.65 48.25C216.817 46.35 218.333 44.95 220.2 44.05C222.1 43.15 224.2 42.7 226.5 42.7C230.467 42.7 233.45 43.7167 235.45 45.75C237.483 47.7833 238.5 50.4333 238.5 53.7C238.5 57.2667 237.283 60.5833 234.85 63.65C232.417 66.6833 229.317 69.65 225.55 72.55H239.05V79.5H213.95V73.15ZM242.814 61.25C242.814 55.5167 243.914 51 246.114 47.7C248.348 44.4 251.931 42.75 256.864 42.75C261.798 42.75 265.364 44.4 267.564 47.7C269.798 51 270.914 55.5167 270.914 61.25C270.914 67.05 269.798 71.6 267.564 74.9C265.364 78.2 261.798 79.85 256.864 79.85C251.931 79.85 248.348 78.2 246.114 74.9C243.914 71.6 242.814 67.05 242.814 61.25ZM262.514 61.25C262.514 57.8833 262.148 55.3 261.414 53.5C260.681 51.6667 259.164 50.75 256.864 50.75C254.564 50.75 253.048 51.6667 252.314 53.5C251.581 55.3 251.214 57.8833 251.214 61.25C251.214 63.5167 251.348 65.4 251.614 66.9C251.881 68.3667 252.414 69.5667 253.214 70.5C254.048 71.4 255.264 71.85 256.864 71.85C258.464 71.85 259.664 71.4 260.464 70.5C261.298 69.5667 261.848 68.3667 262.114 66.9C262.381 65.4 262.514 63.5167 262.514 61.25ZM275.132 73.15C276.265 72.25 276.782 71.8333 276.682 71.9C279.948 69.2 282.515 66.9833 284.382 65.25C286.282 63.5167 287.882 61.7 289.182 59.8C290.482 57.9 291.132 56.05 291.132 54.25C291.132 52.8833 290.815 51.8167 290.182 51.05C289.548 50.2833 288.598 49.9 287.332 49.9C286.065 49.9 285.065 50.3833 284.332 51.35C283.632 52.2833 283.282 53.6167 283.282 55.35H275.032C275.098 52.5167 275.698 50.15 276.832 48.25C277.998 46.35 279.515 44.95 281.382 44.05C283.282 43.15 285.382 42.7 287.682 42.7C291.648 42.7 294.632 43.7167 296.632 45.75C298.665 47.7833 299.682 50.4333 299.682 53.7C299.682 57.2667 298.465 60.5833 296.032 63.65C293.598 66.6833 290.498 69.65 286.732 72.55H300.232V79.5H275.132V73.15ZM304.196 73.5V66.6L319.996 44H329.546V66.1H333.646V73.5H329.546V80H320.996V73.5H304.196ZM321.596 53.4L313.196 66.1H321.596V53.4Z" fill="url(#paint0_linear_483_5280)"/>
</g>
<path d="M0.3 139.8C0.3 132.867 1.8 126.7 4.8 121.3C7.8 115.833 11.9667 111.6 17.3 108.6C22.7 105.533 28.8 104 35.6 104C43.9333 104 51.0667 106.2 57 110.6C62.9333 115 66.9 121 68.9 128.6H50.1C48.7 125.667 46.7 123.433 44.1 121.9C41.5667 120.367 38.6667 119.6 35.4 119.6C30.1333 119.6 25.8667 121.433 22.6 125.1C19.3333 128.767 17.7 133.667 17.7 139.8C17.7 145.933 19.3333 150.833 22.6 154.5C25.8667 158.167 30.1333 160 35.4 160C38.6667 160 41.5667 159.233 44.1 157.7C46.7 156.167 48.7 153.933 50.1 151H68.9C66.9 158.6 62.9333 164.6 57 169C51.0667 173.333 43.9333 175.5 35.6 175.5C28.8 175.5 22.7 174 17.3 171C11.9667 167.933 7.8 163.7 4.8 158.3C1.8 152.9 0.3 146.733 0.3 139.8ZM96.8258 104.8V146.8C96.8258 151 97.8592 154.233 99.9258 156.5C101.993 158.767 105.026 159.9 109.026 159.9C113.026 159.9 116.093 158.767 118.226 156.5C120.359 154.233 121.426 151 121.426 146.8V104.8H138.526V146.7C138.526 152.967 137.193 158.267 134.526 162.6C131.859 166.933 128.259 170.2 123.726 172.4C119.259 174.6 114.259 175.7 108.726 175.7C103.193 175.7 98.2258 174.633 93.8258 172.5C89.4925 170.3 86.0592 167.033 83.5258 162.7C80.9925 158.3 79.7258 152.967 79.7258 146.7V104.8H96.8258ZM176.588 175.7C171.454 175.7 166.854 174.867 162.788 173.2C158.721 171.533 155.454 169.067 152.988 165.8C150.588 162.533 149.321 158.6 149.188 154H167.388C167.654 156.6 168.554 158.6 170.088 160C171.621 161.333 173.621 162 176.088 162C178.621 162 180.621 161.433 182.088 160.3C183.554 159.1 184.288 157.467 184.288 155.4C184.288 153.667 183.688 152.233 182.488 151.1C181.354 149.967 179.921 149.033 178.188 148.3C176.521 147.567 174.121 146.733 170.988 145.8C166.454 144.4 162.754 143 159.888 141.6C157.021 140.2 154.554 138.133 152.488 135.4C150.421 132.667 149.388 129.1 149.388 124.7C149.388 118.167 151.754 113.067 156.488 109.4C161.221 105.667 167.388 103.8 174.988 103.8C182.721 103.8 188.954 105.667 193.688 109.4C198.421 113.067 200.954 118.2 201.288 124.8H182.788C182.654 122.533 181.821 120.767 180.288 119.5C178.754 118.167 176.788 117.5 174.388 117.5C172.321 117.5 170.654 118.067 169.388 119.2C168.121 120.267 167.488 121.833 167.488 123.9C167.488 126.167 168.554 127.933 170.688 129.2C172.821 130.467 176.154 131.833 180.688 133.3C185.221 134.833 188.888 136.3 191.688 137.7C194.554 139.1 197.021 141.133 199.088 143.8C201.154 146.467 202.188 149.9 202.188 154.1C202.188 158.1 201.154 161.733 199.088 165C197.088 168.267 194.154 170.867 190.288 172.8C186.421 174.733 181.854 175.7 176.588 175.7ZM230.465 118.5V132.7H253.365V145.9H230.465V161.3H256.365V175H213.365V104.8H256.365V118.5H230.465ZM265.221 139.8C265.221 132.867 266.721 126.7 269.721 121.3C272.721 115.833 276.887 111.6 282.221 108.6C287.621 105.533 293.721 104 300.521 104C308.854 104 315.987 106.2 321.921 110.6C327.854 115 331.821 121 333.821 128.6H315.021C313.621 125.667 311.621 123.433 309.021 121.9C306.487 120.367 303.587 119.6 300.321 119.6C295.054 119.6 290.787 121.433 287.521 125.1C284.254 128.767 282.621 133.667 282.621 139.8C282.621 145.933 284.254 150.833 287.521 154.5C290.787 158.167 295.054 160 300.321 160C303.587 160 306.487 159.233 309.021 157.7C311.621 156.167 313.621 153.933 315.021 151H333.821C331.821 158.6 327.854 164.6 321.921 169C315.987 173.333 308.854 175.5 300.521 175.5C293.721 175.5 287.621 174 282.221 171C276.887 167.933 272.721 163.7 269.721 158.3C266.721 152.9 265.221 146.733 265.221 139.8Z" fill="white"/>
<g filter="url(#filter2_i_483_5280)">
<path d="M422.141 207.578L481.5 18.1717V225.703L422.141 207.578Z" fill="url(#paint1_linear_483_5280)"/>
</g>
<g filter="url(#filter3_i_483_5280)">
<path d="M420.781 206.219L380.906 155.465L480.141 18.1717L420.781 206.219Z" fill="url(#paint2_linear_483_5280)"/>
</g>
<g filter="url(#filter4_i_483_5280)">
<path d="M380 154.562V92.0311L478.328 17.7186L380 154.562Z" fill="url(#paint3_linear_483_5280)"/>
</g>
<g filter="url(#filter5_i_483_5280)">
<path d="M418.342 35.7689L382.719 87.953L478.781 15.453L418.342 35.7689Z" fill="url(#paint4_linear_483_5280)"/>
</g>
<g filter="url(#filter6_i_483_5280)">
<path d="M543.931 35.5919L482.709 223.689L483.313 15L543.931 35.5919Z" fill="url(#paint5_linear_483_5280)"/>
</g>
<g filter="url(#filter7_i_483_5280)">
<path d="M545.139 36.3975L581.792 90.7725L483.917 223.689L545.139 36.3975Z" fill="url(#paint6_linear_483_5280)"/>
</g>
<g filter="url(#filter8_i_483_5280)">
<path d="M582.195 92.7863L582.195 155.217L485.931 223.286L582.195 92.7863Z" fill="url(#paint7_linear_483_5280)"/>
</g>
<g filter="url(#filter9_i_483_5280)">
<path d="M544.334 206.772L578.972 159.245L487.139 224.495L544.334 206.772Z" fill="url(#paint8_linear_483_5280)"/>
</g>
<defs>
<filter id="filter0_d_483_5280" x="365" y="0" width="232" height="247" filterUnits="userSpaceOnUse" color-interpolation-filters="sRGB">
<feFlood flood-opacity="0" result="BackgroundImageFix"/>
<feColorMatrix in="SourceAlpha" type="matrix" values="0 0 0 0 0 0 0 0 0 0 0 0 0 0 0 0 0 0 127 0" result="hardAlpha"/>
<feOffset dy="4"/>
<feGaussianBlur stdDeviation="2"/>
<feComposite in2="hardAlpha" operator="out"/>
<feColorMatrix type="matrix" values="0 0 0 0 0 0 0 0 0 0 0 0 0 0 0 0 0 0 0.25 0"/>
<feBlend mode="normal" in2="BackgroundImageFix" result="effect1_dropShadow_483_5280"/>
<feBlend mode="normal" in="SourceGraphic" in2="effect1_dropShadow_483_5280" result="shape"/>
</filter>
<filter id="filter1_i_483_5280" x="213.85" y="42.7" width="119.796" height="41.3" filterUnits="userSpaceOnUse" color-interpolation-filters="sRGB">
<feFlood flood-opacity="0" result="BackgroundImageFix"/>
<feBlend mode="normal" in="SourceGraphic" in2="BackgroundImageFix" result="shape"/>
<feColorMatrix in="SourceAlpha" type="matrix" values="0 0 0 0 0 0 0 0 0 0 0 0 0 0 0 0 0 0 127 0" result="hardAlpha"/>
<feOffset dy="4"/>
<feGaussianBlur stdDeviation="2"/>
<feComposite in2="hardAlpha" operator="arithmetic" k2="-1" k3="1"/>
<feColorMatrix type="matrix" values="0 0 0 0 0 0 0 0 0 0 0 0 0 0 0 0 0 0 0.25 0"/>
<feBlend mode="normal" in2="shape" result="effect1_innerShadow_483_5280"/>
</filter>
<filter id="filter2_i_483_5280" x="422.141" y="18.1717" width="59.3594" height="211.531" filterUnits="userSpaceOnUse" color-interpolation-filters="sRGB">
<feFlood flood-opacity="0" result="BackgroundImageFix"/>
<feBlend mode="normal" in="SourceGraphic" in2="BackgroundImageFix" result="shape"/>
<feColorMatrix in="SourceAlpha" type="matrix" values="0 0 0 0 0 0 0 0 0 0 0 0 0 0 0 0 0 0 127 0" result="hardAlpha"/>
<feOffset dy="4"/>
<feGaussianBlur stdDeviation="2"/>
<feComposite in2="hardAlpha" operator="arithmetic" k2="-1" k3="1"/>
<feColorMatrix type="matrix" values="0 0 0 0 0 0 0 0 0 0 0 0 0 0 0 0 0 0 0.25 0"/>
<feBlend mode="normal" in2="shape" result="effect1_innerShadow_483_5280"/>
</filter>
<filter id="filter3_i_483_5280" x="380.906" y="18.1717" width="99.2344" height="192.047" filterUnits="userSpaceOnUse" color-interpolation-filters="sRGB">
<feFlood flood-opacity="0" result="BackgroundImageFix"/>
<feBlend mode="normal" in="SourceGraphic" in2="BackgroundImageFix" result="shape"/>
<feColorMatrix in="SourceAlpha" type="matrix" values="0 0 0 0 0 0 0 0 0 0 0 0 0 0 0 0 0 0 127 0" result="hardAlpha"/>
<feOffset dy="4"/>
<feGaussianBlur stdDeviation="2"/>
<feComposite in2="hardAlpha" operator="arithmetic" k2="-1" k3="1"/>
<feColorMatrix type="matrix" values="0 0 0 0 0 0 0 0 0 0 0 0 0 0 0 0 0 0 0.25 0"/>
<feBlend mode="normal" in2="shape" result="effect1_innerShadow_483_5280"/>
</filter>
<filter id="filter4_i_483_5280" x="380" y="17.7186" width="98.3281" height="140.844" filterUnits="userSpaceOnUse" color-interpolation-filters="sRGB">
<feFlood flood-opacity="0" result="BackgroundImageFix"/>
<feBlend mode="normal" in="SourceGraphic" in2="BackgroundImageFix" result="shape"/>
<feColorMatrix in="SourceAlpha" type="matrix" values="0 0 0 0 0 0 0 0 0 0 0 0 0 0 0 0 0 0 127 0" result="hardAlpha"/>
<feOffset dy="4"/>
<feGaussianBlur stdDeviation="2"/>
<feComposite in2="hardAlpha" operator="arithmetic" k2="-1" k3="1"/>
<feColorMatrix type="matrix" values="0 0 0 0 0 0 0 0 0 0 0 0 0 0 0 0 0 0 0.25 0"/>
<feBlend mode="normal" in2="shape" result="effect1_innerShadow_483_5280"/>
</filter>
<filter id="filter5_i_483_5280" x="382.719" y="15.453" width="96.0625" height="76.5" filterUnits="userSpaceOnUse" color-interpolation-filters="sRGB">
<feFlood flood-opacity="0" result="BackgroundImageFix"/>
<feBlend mode="normal" in="SourceGraphic" in2="BackgroundImageFix" result="shape"/>
<feColorMatrix in="SourceAlpha" type="matrix" values="0 0 0 0 0 0 0 0 0 0 0 0 0 0 0 0 0 0 127 0" result="hardAlpha"/>
<feOffset dy="4"/>
<feGaussianBlur stdDeviation="2"/>
<feComposite in2="hardAlpha" operator="arithmetic" k2="-1" k3="1"/>
<feColorMatrix type="matrix" values="0 0 0 0 0 0 0 0 0 0 0 0 0 0 0 0 0 0 0.25 0"/>
<feBlend mode="normal" in2="shape" result="effect1_innerShadow_483_5280"/>
</filter>
<filter id="filter6_i_483_5280" x="482.708" y="15" width="61.2222" height="212.689" filterUnits="userSpaceOnUse" color-interpolation-filters="sRGB">
<feFlood flood-opacity="0" result="BackgroundImageFix"/>
<feBlend mode="normal" in="SourceGraphic" in2="BackgroundImageFix" result="shape"/>
<feColorMatrix in="SourceAlpha" type="matrix" values="0 0 0 0 0 0 0 0 0 0 0 0 0 0 0 0 0 0 127 0" result="hardAlpha"/>
<feOffset dy="4"/>
<feGaussianBlur stdDeviation="2"/>
<feComposite in2="hardAlpha" operator="arithmetic" k2="-1" k3="1"/>
<feColorMatrix type="matrix" values="0 0 0 0 0 0 0 0 0 0 0 0 0 0 0 0 0 0 0.25 0"/>
<feBlend mode="normal" in2="shape" result="effect1_innerShadow_483_5280"/>
</filter>
<filter id="filter7_i_483_5280" x="483.917" y="36.3976" width="97.875" height="191.292" filterUnits="userSpaceOnUse" color-interpolation-filters="sRGB">
<feFlood flood-opacity="0" result="BackgroundImageFix"/>
<feBlend mode="normal" in="SourceGraphic" in2="BackgroundImageFix" result="shape"/>
<feColorMatrix in="SourceAlpha" type="matrix" values="0 0 0 0 0 0 0 0 0 0 0 0 0 0 0 0 0 0 127 0" result="hardAlpha"/>
<feOffset dy="4"/>
<feGaussianBlur stdDeviation="2"/>
<feComposite in2="hardAlpha" operator="arithmetic" k2="-1" k3="1"/>
<feColorMatrix type="matrix" values="0 0 0 0 0 0 0 0 0 0 0 0 0 0 0 0 0 0 0.25 0"/>
<feBlend mode="normal" in2="shape" result="effect1_innerShadow_483_5280"/>
</filter>
<filter id="filter8_i_483_5280" x="485.931" y="92.7863" width="96.2642" height="134.5" filterUnits="userSpaceOnUse" color-interpolation-filters="sRGB">
<feFlood flood-opacity="0" result="BackgroundImageFix"/>
<feBlend mode="normal" in="SourceGraphic" in2="BackgroundImageFix" result="shape"/>
<feColorMatrix in="SourceAlpha" type="matrix" values="0 0 0 0 0 0 0 0 0 0 0 0 0 0 0 0 0 0 127 0" result="hardAlpha"/>
<feOffset dy="4"/>
<feGaussianBlur stdDeviation="2"/>
<feComposite in2="hardAlpha" operator="arithmetic" k2="-1" k3="1"/>
<feColorMatrix type="matrix" values="0 0 0 0 0 0 0 0 0 0 0 0 0 0 0 0 0 0 0.25 0"/>
<feBlend mode="normal" in2="shape" result="effect1_innerShadow_483_5280"/>
</filter>
<filter id="filter9_i_483_5280" x="487.139" y="159.245" width="91.833" height="69.2501" filterUnits="userSpaceOnUse" color-interpolation-filters="sRGB">
<feFlood flood-opacity="0" result="BackgroundImageFix"/>
<feBlend mode="normal" in="SourceGraphic" in2="BackgroundImageFix" result="shape"/>
<feColorMatrix in="SourceAlpha" type="matrix" values="0 0 0 0 0 0 0 0 0 0 0 0 0 0 0 0 0 0 127 0" result="hardAlpha"/>
<feOffset dy="4"/>
<feGaussianBlur stdDeviation="2"/>
<feComposite in2="hardAlpha" operator="arithmetic" k2="-1" k3="1"/>
<feColorMatrix type="matrix" values="0 0 0 0 0 0 0 0 0 0 0 0 0 0 0 0 0 0 0.25 0"/>
<feBlend mode="normal" in2="shape" result="effect1_innerShadow_483_5280"/>
</filter>
<linearGradient id="paint0_linear_483_5280" x1="225.152" y1="62.5" x2="336" y2="62.5" gradientUnits="userSpaceOnUse">
<stop stop-color="#AC65E3"/>
<stop offset="0.545153" stop-color="#DF86BC"/>
<stop offset="1" stop-color="#FFB963"/>
</linearGradient>
<linearGradient id="paint1_linear_483_5280" x1="481.099" y1="20.887" x2="451.254" y2="215.622" gradientUnits="userSpaceOnUse">
<stop offset="0.21875" stop-color="#FFB963"/>
<stop offset="1" stop-color="#E48BB7"/>
</linearGradient>
<linearGradient id="paint2_linear_483_5280" x1="480.594" y1="16.3592" x2="396.981" y2="178.238" gradientUnits="userSpaceOnUse">
<stop offset="0.317708" stop-color="#E38AB6"/>
<stop offset="1" stop-color="#CB79CD"/>
</linearGradient>
<linearGradient id="paint3_linear_483_5280" x1="479.282" y1="16.762" x2="380.252" y2="125.306" gradientUnits="userSpaceOnUse">
<stop offset="0.395833" stop-color="#CA78CC"/>
<stop offset="1" stop-color="#AD65E3"/>
</linearGradient>
<linearGradient id="paint4_linear_483_5280" x1="478.781" y1="15.453" x2="396.545" y2="66.3948" gradientUnits="userSpaceOnUse">
<stop offset="0.427083" stop-color="#AC65E3"/>
<stop offset="1" stop-color="#FFBA64"/>
</linearGradient>
<linearGradient id="paint5_linear_483_5280" x1="481.5" y1="223.689" x2="512.917" y2="24.3142" gradientUnits="userSpaceOnUse">
<stop offset="0.3125" stop-color="#AC65E3"/>
<stop offset="1" stop-color="#FFBA64"/>
</linearGradient>
<linearGradient id="paint6_linear_483_5280" x1="483.917" y1="224.495" x2="564.069" y2="63.7864" gradientUnits="userSpaceOnUse">
<stop offset="0.34375" stop-color="#CA78CC"/>
<stop offset="1" stop-color="#AD66E4"/>
</linearGradient>
<linearGradient id="paint7_linear_483_5280" x1="485.528" y1="223.689" x2="582.195" y2="122.995" gradientUnits="userSpaceOnUse">
<stop offset="0.34375" stop-color="#E38AB6"/>
<stop offset="1" stop-color="#CB79CD"/>
</linearGradient>
<linearGradient id="paint8_linear_483_5280" x1="487.139" y1="225.3" x2="563.667" y2="180.995" gradientUnits="userSpaceOnUse">
<stop offset="0.34375" stop-color="#FFB963"/>
<stop offset="1" stop-color="#E48BB7"/>
</linearGradient>
</defs>
</svg>
