<svg width="147" height="62" viewBox="0 0 147 62" fill="none" xmlns="http://www.w3.org/2000/svg">
<path d="M0.825 33.3055C0.825 31.5721 1.2 30.0305 1.95 28.6805C2.7 27.3138 3.74167 26.2555 5.075 25.5055C6.425 24.7388 7.95 24.3555 9.65 24.3555C11.7333 24.3555 13.5167 24.9055 15 26.0055C16.4833 27.1055 17.475 28.6055 17.975 30.5055H13.275C12.925 29.7721 12.425 29.2138 11.775 28.8305C11.1417 28.4471 10.4167 28.2555 9.6 28.2555C8.28333 28.2555 7.21667 28.7138 6.4 29.6305C5.58333 30.5471 5.175 31.7721 5.175 33.3055C5.175 34.8388 5.58333 36.0638 6.4 36.9805C7.21667 37.8971 8.28333 38.3555 9.6 38.3555C10.4167 38.3555 11.1417 38.1638 11.775 37.7805C12.425 37.3971 12.925 36.8388 13.275 36.1055H17.975C17.475 38.0055 16.4833 39.5055 15 40.6055C13.5167 41.6888 11.7333 42.2305 9.65 42.2305C7.95 42.2305 6.425 41.8555 5.075 41.1055C3.74167 40.3388 2.7 39.2805 1.95 37.9305C1.2 36.5805 0.825 35.0388 0.825 33.3055ZM25.4469 24.5555V35.0555C25.4469 36.1055 25.7053 36.9138 26.2219 37.4805C26.7386 38.0471 27.4969 38.3305 28.4969 38.3305C29.4969 38.3305 30.2636 38.0471 30.7969 37.4805C31.3303 36.9138 31.5969 36.1055 31.5969 35.0555V24.5555H35.8719V35.0305C35.8719 36.5971 35.5386 37.9221 34.8719 39.0055C34.2053 40.0888 33.3053 40.9055 32.1719 41.4555C31.0553 42.0055 29.8053 42.2805 28.4219 42.2805C27.0386 42.2805 25.7969 42.0138 24.6969 41.4805C23.6136 40.9305 22.7553 40.1138 22.1219 39.0305C21.4886 37.9305 21.1719 36.5971 21.1719 35.0305V24.5555H25.4469ZM45.8778 42.2805C44.5945 42.2805 43.4445 42.0721 42.4278 41.6555C41.4112 41.2388 40.5945 40.6221 39.9778 39.8055C39.3778 38.9888 39.0612 38.0055 39.0278 36.8555H43.5778C43.6445 37.5055 43.8695 38.0055 44.2528 38.3555C44.6362 38.6888 45.1362 38.8555 45.7528 38.8555C46.3862 38.8555 46.8862 38.7138 47.2528 38.4305C47.6195 38.1305 47.8028 37.7221 47.8028 37.2055C47.8028 36.7721 47.6528 36.4138 47.3528 36.1305C47.0695 35.8471 46.7112 35.6138 46.2778 35.4305C45.8612 35.2471 45.2612 35.0388 44.4778 34.8055C43.3445 34.4555 42.4195 34.1055 41.7028 33.7555C40.9862 33.4055 40.3695 32.8888 39.8528 32.2055C39.3362 31.5221 39.0778 30.6305 39.0778 29.5305C39.0778 27.8971 39.6695 26.6221 40.8528 25.7055C42.0362 24.7721 43.5778 24.3055 45.4778 24.3055C47.4112 24.3055 48.9695 24.7721 50.1528 25.7055C51.3362 26.6221 51.9695 27.9055 52.0528 29.5555H47.4278C47.3945 28.9888 47.1862 28.5471 46.8028 28.2305C46.4195 27.8971 45.9278 27.7305 45.3278 27.7305C44.8112 27.7305 44.3945 27.8721 44.0778 28.1555C43.7612 28.4221 43.6028 28.8138 43.6028 29.3305C43.6028 29.8971 43.8695 30.3388 44.4028 30.6555C44.9362 30.9721 45.7695 31.3138 46.9028 31.6805C48.0362 32.0638 48.9528 32.4305 49.6528 32.7805C50.3695 33.1305 50.9862 33.6388 51.5028 34.3055C52.0195 34.9721 52.2778 35.8305 52.2778 36.8805C52.2778 37.8805 52.0195 38.7888 51.5028 39.6055C51.0028 40.4221 50.2695 41.0721 49.3028 41.5555C48.3362 42.0388 47.1945 42.2805 45.8778 42.2805ZM59.8377 27.9805V31.5305H65.5627V34.8305H59.8377V38.6805H66.3127V42.1055H55.5627V24.5555H66.3127V27.9805H59.8377ZM69.017 33.3055C69.017 31.5721 69.392 30.0305 70.142 28.6805C70.892 27.3138 71.9337 26.2555 73.267 25.5055C74.617 24.7388 76.142 24.3555 77.842 24.3555C79.9254 24.3555 81.7087 24.9055 83.192 26.0055C84.6754 27.1055 85.667 28.6055 86.167 30.5055H81.467C81.117 29.7721 80.617 29.2138 79.967 28.8305C79.3337 28.4471 78.6087 28.2555 77.792 28.2555C76.4754 28.2555 75.4087 28.7138 74.592 29.6305C73.7754 30.5471 73.367 31.7721 73.367 33.3055C73.367 34.8388 73.7754 36.0638 74.592 36.9805C75.4087 37.8971 76.4754 38.3555 77.792 38.3555C78.6087 38.3555 79.3337 38.1638 79.967 37.7805C80.617 37.3971 81.117 36.8388 81.467 36.1055H86.167C85.667 38.0055 84.6754 39.5055 83.192 40.6055C81.7087 41.6888 79.9254 42.2305 77.842 42.2305C76.142 42.2305 74.617 41.8555 73.267 41.1055C71.9337 40.3388 70.892 39.2805 70.142 37.9305C69.392 36.5805 69.017 35.0388 69.017 33.3055Z" fill="white"/>
<path d="M48.7793 16.945C49.1193 16.675 49.2743 16.55 49.2443 16.57C50.2243 15.76 50.9943 15.095 51.5543 14.575C52.1243 14.055 52.6043 13.51 52.9943 12.94C53.3843 12.37 53.5793 11.815 53.5793 11.275C53.5793 10.865 53.4843 10.545 53.2943 10.315C53.1043 10.085 52.8193 9.97 52.4393 9.97C52.0593 9.97 51.7593 10.115 51.5393 10.405C51.3293 10.685 51.2243 11.085 51.2243 11.605H48.7493C48.7693 10.755 48.9493 10.045 49.2893 9.475C49.6393 8.905 50.0943 8.485 50.6543 8.215C51.2243 7.945 51.8543 7.81 52.5443 7.81C53.7343 7.81 54.6293 8.115 55.2293 8.725C55.8393 9.335 56.1443 10.13 56.1443 11.11C56.1443 12.18 55.7793 13.175 55.0493 14.095C54.3193 15.005 53.3893 15.895 52.2593 16.765H56.3093V18.85H48.7793V16.945ZM57.4387 13.375C57.4387 11.655 57.7687 10.3 58.4287 9.31C59.0987 8.32 60.1737 7.825 61.6537 7.825C63.1337 7.825 64.2037 8.32 64.8637 9.31C65.5337 10.3 65.8687 11.655 65.8687 13.375C65.8687 15.115 65.5337 16.48 64.8637 17.47C64.2037 18.46 63.1337 18.955 61.6537 18.955C60.1737 18.955 59.0987 18.46 58.4287 17.47C57.7687 16.48 57.4387 15.115 57.4387 13.375ZM63.3487 13.375C63.3487 12.365 63.2387 11.59 63.0187 11.05C62.7987 10.5 62.3437 10.225 61.6537 10.225C60.9637 10.225 60.5087 10.5 60.2887 11.05C60.0687 11.59 59.9587 12.365 59.9587 13.375C59.9587 14.055 59.9987 14.62 60.0787 15.07C60.1587 15.51 60.3187 15.87 60.5587 16.15C60.8087 16.42 61.1737 16.555 61.6537 16.555C62.1337 16.555 62.4937 16.42 62.7337 16.15C62.9837 15.87 63.1487 15.51 63.2287 15.07C63.3087 14.62 63.3487 14.055 63.3487 13.375ZM67.1338 16.945C67.4738 16.675 67.6288 16.55 67.5988 16.57C68.5788 15.76 69.3488 15.095 69.9088 14.575C70.4788 14.055 70.9588 13.51 71.3488 12.94C71.7388 12.37 71.9338 11.815 71.9338 11.275C71.9338 10.865 71.8388 10.545 71.6488 10.315C71.4588 10.085 71.1738 9.97 70.7938 9.97C70.4138 9.97 70.1138 10.115 69.8938 10.405C69.6838 10.685 69.5788 11.085 69.5788 11.605H67.1038C67.1238 10.755 67.3038 10.045 67.6438 9.475C67.9938 8.905 68.4488 8.485 69.0088 8.215C69.5788 7.945 70.2088 7.81 70.8988 7.81C72.0888 7.81 72.9838 8.115 73.5838 8.725C74.1938 9.335 74.4988 10.13 74.4988 11.11C74.4988 12.18 74.1338 13.175 73.4038 14.095C72.6738 15.005 71.7438 15.895 70.6138 16.765H74.6638V18.85H67.1338V16.945ZM75.8532 17.05V14.98L80.5932 8.2H83.4582V14.83H84.6882V17.05H83.4582V19H80.8932V17.05H75.8532ZM81.0732 11.02L78.5532 14.83H81.0732V11.02Z" fill="url(#paint0_linear_399_4699)"/>
<g filter="url(#filter0_d_399_4699)">
<path d="M118.67 50.2944L105.65 46.1112L96.9126 34.869V20.8381L104.965 8.81151L118.67 4.10547L131.948 8.81151L140 20.8381V34.869L131.948 46.1112L118.67 50.2944Z" fill="white"/>
<path d="M118.67 4.10547V50.2944M118.67 4.10547L105.65 46.1112M118.67 4.10547L96.9126 34.869M118.67 4.10547L96.9126 20.8381M118.67 4.10547L104.965 8.81151L96.9126 20.8381M118.67 4.10547L131.948 8.81151M118.67 50.2944L105.65 46.1112M118.67 50.2944L131.948 46.1112L140 34.869M118.67 50.2944L140 34.869M118.67 50.2944L140 20.8381M118.67 50.2944L131.948 8.81151M105.65 46.1112L96.9126 34.869M96.9126 34.869V20.8381M140 34.869V20.8381M140 20.8381L131.948 8.81151" stroke="white" stroke-width="6"/>
</g>
<path d="M118.67 49.7147L105.65 45.6016L96.9126 34.5475V20.7514L104.965 8.92611L118.67 4.29883L131.948 8.92611L140 20.7514V34.5475L131.948 45.6016L118.67 49.7147Z" fill="white"/>
<path d="M118.67 4.29883V49.7147M118.67 4.29883L105.65 45.6016M118.67 4.29883L96.9126 34.5475M118.67 4.29883L96.9126 20.7514M118.67 4.29883L104.965 8.92611L96.9126 20.7514M118.67 4.29883L131.948 8.92611M118.67 49.7147L105.65 45.6016M118.67 49.7147L131.948 45.6016L140 34.5475M118.67 49.7147L140 34.5475M118.67 49.7147L140 20.7514M118.67 49.7147L131.948 8.92611M105.65 45.6016L96.9126 34.5475M96.9126 34.5475V20.7514M140 34.5475V20.7514M140 20.7514L131.948 8.92611" stroke="white" stroke-width="2"/>
<path d="M105.857 45.6563L118.456 5.26514V49.5215L105.857 45.6563Z" fill="url(#paint1_linear_399_4699)"/>
<path d="M105.569 45.3664L97.105 34.5431L118.168 5.26514L105.569 45.3664Z" fill="url(#paint2_linear_399_4699)"/>
<path d="M96.9126 34.3506V21.0157L117.783 5.16846L96.9126 34.3506Z" fill="url(#paint3_linear_399_4699)"/>
<path d="M105.051 9.01746L97.4897 20.1458L117.879 4.68506L105.051 9.01746Z" fill="url(#paint4_linear_399_4699)"/>
<path d="M131.707 8.97957L118.713 49.0915L118.841 4.58831L131.707 8.97957Z" fill="url(#paint5_linear_399_4699)"/>
<path d="M131.964 9.15174L139.744 20.7473L118.969 49.0919L131.964 9.15174Z" fill="url(#paint6_linear_399_4699)"/>
<path d="M139.829 21.1766L139.829 34.49L119.397 49.0059L139.829 21.1766Z" fill="url(#paint7_linear_399_4699)"/>
<path d="M131.793 45.4843L139.145 35.3489L119.653 49.2636L131.793 45.4843Z" fill="url(#paint8_linear_399_4699)"/>
<defs>
<filter id="filter0_d_399_4699" x="89.9126" y="0.928223" width="57.0874" height="60.5142" filterUnits="userSpaceOnUse" color-interpolation-filters="sRGB">
<feFlood flood-opacity="0" result="BackgroundImageFix"/>
<feColorMatrix in="SourceAlpha" type="matrix" values="0 0 0 0 0 0 0 0 0 0 0 0 0 0 0 0 0 0 127 0" result="hardAlpha"/>
<feOffset dy="4"/>
<feGaussianBlur stdDeviation="2"/>
<feComposite in2="hardAlpha" operator="out"/>
<feColorMatrix type="matrix" values="0 0 0 0 0 0 0 0 0 0 0 0 0 0 0 0 0 0 0.25 0"/>
<feBlend mode="normal" in2="BackgroundImageFix" result="effect1_dropShadow_399_4699"/>
<feBlend mode="normal" in="SourceGraphic" in2="effect1_dropShadow_399_4699" result="shape"/>
</filter>
<linearGradient id="paint0_linear_399_4699" x1="52.2246" y1="13.5" x2="86.1943" y2="13.5" gradientUnits="userSpaceOnUse">
<stop stop-color="#AC65E3"/>
<stop offset="0.494792" stop-color="#DF86BC"/>
<stop offset="1" stop-color="#FFB963"/>
</linearGradient>
<linearGradient id="paint1_linear_399_4699" x1="118.371" y1="5.84417" x2="111.978" y2="47.3627" gradientUnits="userSpaceOnUse">
<stop offset="0.21875" stop-color="#FFB963"/>
<stop offset="1" stop-color="#E48BB7"/>
</linearGradient>
<linearGradient id="paint2_linear_399_4699" x1="118.264" y1="4.87862" x2="100.385" y2="39.3311" gradientUnits="userSpaceOnUse">
<stop offset="0.317708" stop-color="#E38AB6"/>
<stop offset="1" stop-color="#CB79CD"/>
</linearGradient>
<linearGradient id="paint3_linear_399_4699" x1="117.986" y1="4.96446" x2="96.8584" y2="28.013" gradientUnits="userSpaceOnUse">
<stop offset="0.395833" stop-color="#CA78CC"/>
<stop offset="1" stop-color="#AD65E3"/>
</linearGradient>
<linearGradient id="paint4_linear_399_4699" x1="117.879" y1="4.68506" x2="100.379" y2="15.475" gradientUnits="userSpaceOnUse">
<stop offset="0.427083" stop-color="#AC65E3"/>
<stop offset="1" stop-color="#FFBA64"/>
</linearGradient>
<linearGradient id="paint5_linear_399_4699" x1="118.456" y1="49.0916" x2="125.186" y2="6.5843" gradientUnits="userSpaceOnUse">
<stop offset="0.3125" stop-color="#AC65E3"/>
<stop offset="1" stop-color="#FFBA64"/>
</linearGradient>
<linearGradient id="paint6_linear_399_4699" x1="118.969" y1="49.2637" x2="136.11" y2="15.0567" gradientUnits="userSpaceOnUse">
<stop offset="0.34375" stop-color="#CA78CC"/>
<stop offset="1" stop-color="#AD66E4"/>
</linearGradient>
<linearGradient id="paint7_linear_399_4699" x1="119.311" y1="49.0918" x2="139.929" y2="27.7153" gradientUnits="userSpaceOnUse">
<stop offset="0.34375" stop-color="#E38AB6"/>
<stop offset="1" stop-color="#CB79CD"/>
</linearGradient>
<linearGradient id="paint8_linear_399_4699" x1="119.653" y1="49.4354" x2="135.934" y2="40.0534" gradientUnits="userSpaceOnUse">
<stop offset="0.34375" stop-color="#FFB963"/>
<stop offset="1" stop-color="#E48BB7"/>
</linearGradient>
</defs>
</svg>
